<?xml version="1.0" encoding="utf-8"?>
<!-- Generator: Adobe Illustrator 16.0.0, SVG Export Plug-In . SVG Version: 6.00 Build 0)  -->
<!DOCTYPE svg PUBLIC "-//W3C//DTD SVG 1.1//EN" "http://www.w3.org/Graphics/SVG/1.1/DTD/svg11.dtd">
<svg version="1.1" xmlns="http://www.w3.org/2000/svg" xmlns:xlink="http://www.w3.org/1999/xlink" x="0px" y="0px" width="100px"
	 height="100px" viewBox="0 0 100 100" enable-background="new 0 0 100 100" xml:space="preserve">
<g id="Layer_1">
	<path fill="none" stroke="#000000" stroke-width="2" stroke-miterlimit="10" d="M49.999,8.021
		c-23.563,0-42.666,19.103-42.666,42.667c0,23.563,19.103,42.666,42.666,42.666c23.563,0,42.667-19.104,42.667-42.666
		C92.666,27.124,73.563,8.021,49.999,8.021z M24.5,38.5c6,0,13,0,19,0C37.5,38.5,30.5,38.5,24.5,38.5z"/>
</g>
<g id="Layer_2">
	<path fill="none" stroke="#000000" stroke-width="2" stroke-miterlimit="10" d="M25.193,38.5c-0.032,0.573-0.068,1.145-0.068,1.735
		c0,9.521,3.918,17.235,8.75,17.235s8.75-7.715,8.75-17.235c0-0.591-0.036-1.162-0.068-1.735C37.003,38.5,30.724,38.5,25.193,38.5z"
		/>
	<path fill="none" stroke="#000000" stroke-width="2" stroke-miterlimit="10" d="M57.043,38.5c-0.033,0.573-0.068,1.145-0.068,1.735
		c0,9.521,3.918,17.235,8.75,17.235s8.75-7.715,8.75-17.235c0-0.591-0.035-1.162-0.068-1.735C68.854,38.5,62.574,38.5,57.043,38.5z"
		/>
</g>
</svg>
