<?xml version="1.0" encoding="utf-8"?>
<!-- Generator: Adobe Illustrator 16.0.0, SVG Export Plug-In . SVG Version: 6.00 Build 0)  -->
<!DOCTYPE svg PUBLIC "-//W3C//DTD SVG 1.1//EN" "http://www.w3.org/Graphics/SVG/1.1/DTD/svg11.dtd">
<svg version="1.1" xmlns="http://www.w3.org/2000/svg" xmlns:xlink="http://www.w3.org/1999/xlink" x="0px" y="0px" width="100px"
	 height="100px" viewBox="0 0 100 100" enable-background="new 0 0 100 100" xml:space="preserve">
<g id="Layer_1">
	<path fill="none" stroke="#000000" stroke-width="2" stroke-miterlimit="10" d="M49.999,8.021
		c-23.563,0-42.666,19.103-42.666,42.667c0,23.563,19.103,42.666,42.666,42.666c23.563,0,42.667-19.104,42.667-42.666
		C92.666,27.124,73.563,8.021,49.999,8.021z M43.244,40.235c0,9.52-3.917,17.235-8.75,17.235c-4.832,0-8.75-7.715-8.75-17.235
		c0-1.284,0.077-2.531,0.212-3.735c-0.152,0-0.304,0-0.456,0c0.152,0,0.304,0,0.456,0c0.867-7.721,4.358-13.5,8.538-13.5
		c4.181,0,7.671,5.779,8.538,13.5c0.156,0,0.312,0,0.468,0c-0.156,0-0.312,0-0.468,0C43.167,37.704,43.244,38.951,43.244,40.235z
		 M65.725,57.471c-4.832,0-8.75-7.715-8.75-17.235c0-9.519,3.918-17.235,8.75-17.235c4.833,0,8.75,7.717,8.75,17.235
		C74.475,49.756,70.558,57.471,65.725,57.471z"/>
</g>
<g id="Layer_2">
	<path stroke="#000000" stroke-width="2" stroke-miterlimit="10" d="M65.833,23.647c-4.13,0-7.584,5.646-8.503,13.228
		c5.669,0,11.337,0,17.006,0C73.417,29.292,69.963,23.647,65.833,23.647z"/>
</g>
</svg>
