<?xml version="1.0" encoding="utf-8"?>
<!-- Generator: Adobe Illustrator 16.0.0, SVG Export Plug-In . SVG Version: 6.00 Build 0)  -->
<!DOCTYPE svg PUBLIC "-//W3C//DTD SVG 1.1//EN" "http://www.w3.org/Graphics/SVG/1.1/DTD/svg11.dtd">
<svg version="1.1" xmlns="http://www.w3.org/2000/svg" xmlns:xlink="http://www.w3.org/1999/xlink" x="0px" y="0px" width="100px"
	 height="100px" viewBox="0 0 100 100" enable-background="new 0 0 100 100" xml:space="preserve">
<g id="Layer_1">
	<circle fill="none" stroke="#000000" stroke-width="2" stroke-miterlimit="10" cx="49.999" cy="50.688" r="42.667"/>
	<path fill="none" stroke="#000000" stroke-width="2" stroke-miterlimit="10" d="M39.016,25.5c-2.781,0-6.265,0-9.043,0
		c-2.531,3.021-4.229,8.48-4.229,14.735c0,5.336,1.232,10.104,3.165,13.265c3.724,0,7.448,0,11.171,0
		c1.933-3.161,3.164-7.929,3.164-13.265C43.244,33.98,41.547,28.521,39.016,25.5z"/>
	<path fill="none" stroke="#000000" stroke-width="2" stroke-miterlimit="10" d="M70.246,25.5c-2.781,0-6.265,0-9.043,0
		c-2.531,3.021-4.229,8.48-4.229,14.735c0,5.336,1.231,10.104,3.164,13.265c3.724,0,7.447,0,11.172,0
		c1.932-3.161,3.164-7.929,3.164-13.265C74.475,33.98,72.777,28.521,70.246,25.5z"/>
</g>
<g id="Layer_2">
</g>
</svg>
