<?xml version="1.0" encoding="utf-8"?>
<!-- Generator: Adobe Illustrator 16.0.0, SVG Export Plug-In . SVG Version: 6.00 Build 0)  -->
<!DOCTYPE svg PUBLIC "-//W3C//DTD SVG 1.1//EN" "http://www.w3.org/Graphics/SVG/1.1/DTD/svg11.dtd">
<svg version="1.1" xmlns="http://www.w3.org/2000/svg" xmlns:xlink="http://www.w3.org/1999/xlink" x="0px" y="0px" width="100px"
	 height="100px" viewBox="0 0 100 100" enable-background="new 0 0 100 100" xml:space="preserve">
<g id="Layer_1">
	<circle fill="none" stroke="#000000" stroke-width="2" stroke-miterlimit="10" cx="49.999" cy="50.688" r="42.667"/>
</g>
<g id="Layer_2">
	<path fill="none" stroke="#000000" stroke-width="2" stroke-miterlimit="10" d="M36.333,31.5c-3.882,0-6.587-1.818-8.132-4.351
		c-1.879,3.156-3.076,7.839-3.076,13.086c0,9.521,3.918,17.235,8.75,17.235s8.75-7.715,8.75-17.235c0-3.667-0.59-7.052-1.583-9.843
		C39.73,31.085,38.167,31.5,36.333,31.5z"/>
	<path fill="none" stroke="#000000" stroke-width="2" stroke-miterlimit="10" d="M71.09,26.644c-1.434,2.963-4.291,5.189-8.59,5.189
		c-1.577,0-2.959-0.303-4.15-0.828c-0.865,2.669-1.375,5.827-1.375,9.229c0,9.521,3.918,17.235,8.75,17.235s8.75-7.715,8.75-17.235
		C74.475,34.704,73.147,29.793,71.09,26.644z"/>
</g>
</svg>
