<?xml version="1.0" encoding="utf-8"?>
<!-- Generator: Adobe Illustrator 16.0.0, SVG Export Plug-In . SVG Version: 6.00 Build 0)  -->
<!DOCTYPE svg PUBLIC "-//W3C//DTD SVG 1.1//EN" "http://www.w3.org/Graphics/SVG/1.1/DTD/svg11.dtd">
<svg version="1.1" xmlns="http://www.w3.org/2000/svg" xmlns:xlink="http://www.w3.org/1999/xlink" x="0px" y="0px" width="100px"
	 height="100px" viewBox="0 0 100 100" enable-background="new 0 0 100 100" xml:space="preserve">
<g id="Layer_1">
	<path fill="none" stroke="#000000" stroke-width="2" stroke-miterlimit="10" d="M49.999,8.021
		c-23.563,0-42.666,19.103-42.666,42.667c0,23.563,19.103,42.666,42.666,42.666c23.563,0,42.667-19.104,42.667-42.666
		C92.666,27.124,73.563,8.021,49.999,8.021z"/>
</g>
<g id="Layer_2">
	<path fill="none" stroke="#000000" stroke-width="2" stroke-miterlimit="10" d="M33.75,48.875c1.707,0,4.724,0.252,7.306,1.136
		c0.982-2.776,1.569-6.132,1.569-9.775c0-9.519-3.918-17.235-8.75-17.235s-8.75,7.717-8.75,17.235c0,3.613,0.578,6.941,1.546,9.704
		C29.201,49.116,32.093,48.875,33.75,48.875z"/>
	<path fill="none" stroke="#000000" stroke-width="2" stroke-miterlimit="10" d="M65.6,48.875c1.707,0,4.724,0.252,7.307,1.136
		c0.981-2.776,1.568-6.132,1.568-9.775c0-9.519-3.918-17.235-8.75-17.235s-8.75,7.717-8.75,17.235c0,3.612,0.578,6.941,1.546,9.704
		C61.051,49.116,63.942,48.875,65.6,48.875z"/>
</g>
</svg>
