<?xml version="1.0" encoding="utf-8"?>
<!-- Generator: Adobe Illustrator 16.0.0, SVG Export Plug-In . SVG Version: 6.00 Build 0)  -->
<!DOCTYPE svg PUBLIC "-//W3C//DTD SVG 1.1//EN" "http://www.w3.org/Graphics/SVG/1.1/DTD/svg11.dtd">
<svg version="1.1" xmlns="http://www.w3.org/2000/svg" xmlns:xlink="http://www.w3.org/1999/xlink" x="0px" y="0px" width="100px"
	 height="100px" viewBox="0 0 100 100" enable-background="new 0 0 100 100" xml:space="preserve">
<g id="Layer_1">
	<path fill="none" stroke="#000000" stroke-width="2" stroke-miterlimit="10" d="M49.999,8.021
		c-23.563,0-42.666,19.103-42.666,42.667c0,23.563,19.103,42.666,42.666,42.666c23.563,0,42.667-19.104,42.667-42.666
		C92.666,27.124,73.563,8.021,49.999,8.021z"/>
</g>
<g id="Layer_2">
	<path fill="none" stroke="#000000" stroke-width="2" stroke-miterlimit="10" d="M37.933,37.45c-3.917,0-9.217-2.189-11.696-5.538
		c-0.702,2.465-1.111,5.293-1.111,8.324c0,9.521,3.918,17.235,8.75,17.235s8.75-7.715,8.75-17.235c0-1.258-0.083-2.471-0.219-3.645
		C41.074,37.225,39.281,37.45,37.933,37.45z"/>
	<path fill="none" stroke="#000000" stroke-width="2" stroke-miterlimit="10" d="M61.667,37.45c3.917,0,9.218-2.189,11.696-5.538
		c0.701,2.465,1.111,5.293,1.111,8.324c0,9.521-3.918,17.235-8.75,17.235s-8.75-7.715-8.75-17.235c0-1.258,0.083-2.471,0.219-3.645
		C58.525,37.225,60.318,37.45,61.667,37.45z"/>
</g>
</svg>
