<?xml version="1.0" encoding="utf-8"?>
<!-- Generator: Adobe Illustrator 16.0.0, SVG Export Plug-In . SVG Version: 6.00 Build 0)  -->
<!DOCTYPE svg PUBLIC "-//W3C//DTD SVG 1.1//EN" "http://www.w3.org/Graphics/SVG/1.1/DTD/svg11.dtd">
<svg version="1.1" xmlns="http://www.w3.org/2000/svg" xmlns:xlink="http://www.w3.org/1999/xlink" x="0px" y="0px" width="100px"
	 height="100px" viewBox="0 0 100 100" enable-background="new 0 0 100 100" xml:space="preserve">
<g id="Layer_1">
	<circle fill="none" stroke="#000000" stroke-width="2" stroke-miterlimit="10" cx="49.999" cy="50.688" r="42.667"/>
</g>
<g id="Layer_2">
	<path fill="none" stroke="#000000" stroke-width="2" stroke-miterlimit="10" d="M40.713,29.5c-4.559,0-9.118,0-13.677,0
		c-1.193,2.946-1.912,6.673-1.912,10.735c0,9.521,3.918,17.235,8.75,17.235s8.75-7.715,8.75-17.235
		C42.625,36.173,41.907,32.446,40.713,29.5z"/>
	<path fill="none" stroke="#000000" stroke-width="2" stroke-miterlimit="10" d="M72.563,29.5c-4.559,0-9.117,0-13.676,0
		c-1.193,2.946-1.912,6.674-1.912,10.735c0,9.521,3.918,17.235,8.75,17.235s8.75-7.715,8.75-17.235
		C74.475,36.174,73.756,32.446,72.563,29.5z"/>
</g>
</svg>
