<?xml version="1.0" encoding="utf-8"?>
<!-- Generator: Adobe Illustrator 16.0.0, SVG Export Plug-In . SVG Version: 6.00 Build 0)  -->
<!DOCTYPE svg PUBLIC "-//W3C//DTD SVG 1.1//EN" "http://www.w3.org/Graphics/SVG/1.1/DTD/svg11.dtd">
<svg version="1.1" xmlns="http://www.w3.org/2000/svg" xmlns:xlink="http://www.w3.org/1999/xlink" x="0px" y="0px" width="100px"
	 height="100px" viewBox="0 0 100 100" enable-background="new 0 0 100 100" xml:space="preserve">
<g id="Layer_1">
	<path fill="none" stroke="#000000" stroke-width="2" stroke-miterlimit="10" d="M49.999,8.021
		c-23.563,0-42.666,19.103-42.666,42.667c0,23.563,19.103,42.666,42.666,42.666c23.563,0,42.667-19.104,42.667-42.666
		C92.666,27.124,73.563,8.021,49.999,8.021z"/>
</g>
<g id="Layer_2">
	<path fill="none" stroke="#000000" stroke-width="2" stroke-miterlimit="10" d="M34.125,52.625c1.274,0,3.425,0.172,5.407,0.737
		c1.89-3.159,3.093-7.861,3.093-13.127c0-9.519-3.918-17.235-8.75-17.235s-8.75,7.717-8.75,17.235
		c0,5.338,1.236,10.096,3.171,13.255C30.388,52.823,32.759,52.625,34.125,52.625z"/>
	<path fill="none" stroke="#000000" stroke-width="2" stroke-miterlimit="10" d="M65.975,52.625c1.274,0,3.426,0.172,5.407,0.738
		c1.89-3.16,3.093-7.861,3.093-13.127c0-9.519-3.918-17.235-8.75-17.235s-8.75,7.717-8.75,17.235c0,5.338,1.236,10.097,3.172,13.254
		C62.238,52.824,64.609,52.625,65.975,52.625z"/>
</g>
</svg>
