<?xml version="1.0" encoding="utf-8"?>
<!-- Generator: Adobe Illustrator 16.0.0, SVG Export Plug-In . SVG Version: 6.00 Build 0)  -->
<!DOCTYPE svg PUBLIC "-//W3C//DTD SVG 1.1//EN" "http://www.w3.org/Graphics/SVG/1.1/DTD/svg11.dtd">
<svg version="1.1" xmlns="http://www.w3.org/2000/svg" xmlns:xlink="http://www.w3.org/1999/xlink" x="0px" y="0px" width="100px"
	 height="100px" viewBox="0 0 100 100" enable-background="new 0 0 100 100" xml:space="preserve">
<g id="Layer_1">
	<path fill="none" stroke="#000000" stroke-width="2" stroke-miterlimit="10" d="M49.999,8.021
		c-23.563,0-42.666,19.103-42.666,42.667c0,23.563,19.103,42.666,42.666,42.666c23.563,0,42.667-19.104,42.667-42.666
		C92.666,27.124,73.563,8.021,49.999,8.021z M24.5,39.5c6,0,13,0,19,0C37.5,39.5,30.5,39.5,24.5,39.5z"/>
</g>
<g id="Layer_2">
	<ellipse fill="none" stroke="#000000" stroke-width="2" stroke-miterlimit="10" cx="65.725" cy="40.236" rx="8.75" ry="17.235"/>
	<path fill="none" stroke="#000000" stroke-width="2" stroke-miterlimit="10" d="M25.144,39.5c-0.005,0.246-0.019,0.487-0.019,0.735
		c0,9.521,3.918,17.235,8.75,17.235s8.75-7.715,8.75-17.235c0-0.248-0.014-0.49-0.019-0.735C37.024,39.5,30.703,39.5,25.144,39.5z"
		/>
</g>
</svg>
