<?xml version="1.0" encoding="utf-8"?>
<!-- Generator: Adobe Illustrator 16.0.0, SVG Export Plug-In . SVG Version: 6.00 Build 0)  -->
<!DOCTYPE svg PUBLIC "-//W3C//DTD SVG 1.1//EN" "http://www.w3.org/Graphics/SVG/1.1/DTD/svg11.dtd">
<svg version="1.1" xmlns="http://www.w3.org/2000/svg" xmlns:xlink="http://www.w3.org/1999/xlink" x="0px" y="0px" width="100px"
	 height="100px" viewBox="0 0 100 100" enable-background="new 0 0 100 100" xml:space="preserve">
<g id="Layer_1">
	<circle fill="none" stroke="#000000" stroke-width="2" stroke-miterlimit="10" cx="49.999" cy="50.688" r="42.667"/>
	<ellipse fill="none" stroke="#000000" stroke-width="2" stroke-miterlimit="10" cx="65.725" cy="40.236" rx="8.75" ry="17.235"/>
	<ellipse fill="none" stroke="#000000" stroke-width="2" stroke-miterlimit="10" cx="34.494" cy="40.235" rx="8.75" ry="17.235"/>
	<path stroke="#000000" stroke-width="2" stroke-miterlimit="10" d="M43.244,40.329c0-9.519-3.918-17.235-8.75-17.235
		s-8.75,7.717-8.75,17.235c0,0.089,0.006,0.176,0.007,0.265c5.829,0,11.658,0,17.486,0C43.237,40.505,43.244,40.418,43.244,40.329z"
		/>
	<path stroke="#000000" stroke-width="2" stroke-miterlimit="10" d="M74.476,40.235c0-9.519-3.918-17.235-8.751-17.235
		c-4.832,0-8.75,7.717-8.75,17.235c0,0.089,0.007,0.176,0.008,0.265c5.828,0,11.657,0,17.485,0
		C74.469,40.411,74.476,40.324,74.476,40.235z"/>
</g>
<g id="Layer_2">
</g>
</svg>
