<?xml version="1.0" encoding="utf-8"?>
<!-- Generator: Adobe Illustrator 16.0.0, SVG Export Plug-In . SVG Version: 6.00 Build 0)  -->
<!DOCTYPE svg PUBLIC "-//W3C//DTD SVG 1.1//EN" "http://www.w3.org/Graphics/SVG/1.1/DTD/svg11.dtd">
<svg version="1.1" xmlns="http://www.w3.org/2000/svg" xmlns:xlink="http://www.w3.org/1999/xlink" x="0px" y="0px" width="100px"
	 height="100px" viewBox="0 0 100 100" enable-background="new 0 0 100 100" xml:space="preserve">
<g id="Layer_1">
	<circle fill="none" stroke="#000000" stroke-width="2" stroke-miterlimit="10" cx="49.999" cy="50.688" r="42.667"/>
</g>
<g id="Layer_2">
	<path fill="none" stroke="#000000" stroke-width="2" stroke-miterlimit="10" d="M25.48,35.5c-0.222,1.506-0.355,3.087-0.355,4.735
		c0,9.521,3.918,17.235,8.75,17.235s8.75-7.715,8.75-17.235c0-1.648-0.133-3.229-0.355-4.735C36.883,35.5,30.846,35.5,25.48,35.5z"
		/>
	<path fill="none" stroke="#000000" stroke-width="2" stroke-miterlimit="10" d="M57.33,35.5c-0.223,1.506-0.355,3.087-0.355,4.735
		c0,9.521,3.918,17.235,8.75,17.235s8.75-7.715,8.75-17.235c0-1.648-0.133-3.229-0.355-4.735C68.732,35.5,62.695,35.5,57.33,35.5z"
		/>
</g>
</svg>
