<?xml version="1.0" encoding="utf-8"?>
<!-- Generator: Adobe Illustrator 16.0.0, SVG Export Plug-In . SVG Version: 6.00 Build 0)  -->
<!DOCTYPE svg PUBLIC "-//W3C//DTD SVG 1.1//EN" "http://www.w3.org/Graphics/SVG/1.1/DTD/svg11.dtd">
<svg version="1.1" xmlns="http://www.w3.org/2000/svg" xmlns:xlink="http://www.w3.org/1999/xlink" x="0px" y="0px" width="100px"
	 height="100px" viewBox="0 0 100 100" enable-background="new 0 0 100 100" xml:space="preserve">
<g id="Layer_1">
	<path fill="none" stroke="#000000" stroke-width="2" stroke-miterlimit="10" d="M49.999,8.021
		c-23.563,0-42.666,19.103-42.666,42.667c0,23.563,19.103,42.666,42.666,42.666c23.563,0,42.667-19.104,42.667-42.666
		C92.666,27.124,73.563,8.021,49.999,8.021z M40.5,27.5c-4,0-8,0-12,0C32.5,27.5,36.5,27.5,40.5,27.5z M27.5,51.5c5,0,9,0,14,0
		C36.5,51.5,32.5,51.5,27.5,51.5z"/>
	<path fill="none" stroke="#000000" stroke-width="2" stroke-miterlimit="10" d="M40.375,27.5c-3.92,0-7.841,0-11.761,0
		c-1.761,3.148-2.87,7.682-2.87,12.735c0,4.315,0.815,8.242,2.146,11.265c4.681,0,8.53,0,13.209,0
		c1.331-3.022,2.145-6.95,2.145-11.265C43.244,35.182,42.135,30.648,40.375,27.5z"/>
	<path fill="none" stroke="#000000" stroke-width="2" stroke-miterlimit="10" d="M71.605,27.5c-3.921,0-7.842,0-11.762,0
		c-1.761,3.148-2.869,7.682-2.869,12.735c0,4.315,0.814,8.242,2.145,11.265c4.682,0,8.53,0,13.21,0
		c1.331-3.022,2.146-6.949,2.146-11.265C74.475,35.182,73.365,30.648,71.605,27.5z"/>
</g>
<g id="Layer_2">
</g>
</svg>
