<?xml version="1.0" encoding="utf-8"?>
<!-- Generator: Adobe Illustrator 16.0.0, SVG Export Plug-In . SVG Version: 6.00 Build 0)  -->
<!DOCTYPE svg PUBLIC "-//W3C//DTD SVG 1.1//EN" "http://www.w3.org/Graphics/SVG/1.1/DTD/svg11.dtd">
<svg version="1.1" xmlns="http://www.w3.org/2000/svg" xmlns:xlink="http://www.w3.org/1999/xlink" x="0px" y="0px" width="100px"
	 height="100px" viewBox="0 0 100 100" enable-background="new 0 0 100 100" xml:space="preserve">
<g id="Layer_1">
	<path fill="none" stroke="#000000" stroke-width="2" stroke-miterlimit="10" d="M49.999,8.021
		c-23.563,0-42.666,19.103-42.666,42.667c0,23.563,19.103,42.666,42.666,42.666c23.563,0,42.667-19.104,42.667-42.666
		C92.666,27.124,73.563,8.021,49.999,8.021z M26.5,47.5c5,0,11,0,16,0C37.5,47.5,31.5,47.5,26.5,47.5z M26.5,30.5c5,0,11,0,16,0
		C37.5,30.5,31.5,30.5,26.5,30.5z"/>
	<path fill="none" stroke="#000000" stroke-width="2" stroke-miterlimit="10" d="M41.696,30.5c-4.569,0-9.837,0-14.405,0
		c-0.971,2.769-1.548,6.113-1.548,9.735c0,2.602,0.301,5.058,0.828,7.265c4.958,0,10.885,0,15.845,0
		c0.527-2.207,0.827-4.663,0.827-7.265C43.244,36.613,42.667,33.269,41.696,30.5z"/>
	<path fill="none" stroke="#000000" stroke-width="2" stroke-miterlimit="10" d="M73.446,31c-4.569,0-9.837,0-14.405,0
		c-0.971,2.769-1.547,6.113-1.547,9.735c0,2.602,0.301,5.058,0.827,7.265c4.958,0,10.885,0,15.845,0
		c0.527-2.207,0.828-4.663,0.828-7.265C74.994,37.113,74.417,33.769,73.446,31z"/>
</g>
<g id="Layer_2">
</g>
</svg>
