<?xml version="1.0" encoding="utf-8"?>
<!-- Generator: Adobe Illustrator 16.0.0, SVG Export Plug-In . SVG Version: 6.00 Build 0)  -->
<!DOCTYPE svg PUBLIC "-//W3C//DTD SVG 1.1//EN" "http://www.w3.org/Graphics/SVG/1.1/DTD/svg11.dtd">
<svg version="1.1" xmlns="http://www.w3.org/2000/svg" xmlns:xlink="http://www.w3.org/1999/xlink" x="0px" y="0px" width="100px"
	 height="100px" viewBox="0 0 100 100" enable-background="new 0 0 100 100" xml:space="preserve">
<g id="Layer_1">
	<path fill="none" stroke="#000000" stroke-width="2" stroke-miterlimit="10" d="M49.999,8.021
		c-23.563,0-42.666,19.103-42.666,42.667c0,23.563,19.103,42.666,42.666,42.666c23.563,0,42.667-19.104,42.667-42.666
		C92.666,27.124,73.563,8.021,49.999,8.021z"/>
</g>
<g id="Layer_2">
	<path fill="none" stroke="#000000" stroke-width="2" stroke-miterlimit="10" d="M34,50.75c1.48,0,4.138,0.232,6.345,1.044
		c1.412-3.056,2.28-7.1,2.28-11.559c0-9.519-3.918-17.235-8.75-17.235s-8.75,7.717-8.75,17.235c0,4.499,0.885,8.574,2.32,11.639
		C29.69,50.998,32.473,50.75,34,50.75z"/>
	<path fill="none" stroke="#000000" stroke-width="2" stroke-miterlimit="10" d="M65.85,50.75c1.48,0,4.139,0.232,6.345,1.044
		c1.411-3.056,2.28-7.1,2.28-11.559c0-9.519-3.918-17.235-8.75-17.235s-8.75,7.717-8.75,17.235c0,4.499,0.885,8.573,2.32,11.639
		C61.539,50.998,64.322,50.75,65.85,50.75z"/>
</g>
</svg>
