<?xml version="1.0" encoding="utf-8"?>
<!-- Generator: Adobe Illustrator 16.0.0, SVG Export Plug-In . SVG Version: 6.00 Build 0)  -->
<!DOCTYPE svg PUBLIC "-//W3C//DTD SVG 1.1//EN" "http://www.w3.org/Graphics/SVG/1.1/DTD/svg11.dtd">
<svg version="1.1" xmlns="http://www.w3.org/2000/svg" xmlns:xlink="http://www.w3.org/1999/xlink" x="0px" y="0px" width="100px"
	 height="100px" viewBox="0 0 100 100" enable-background="new 0 0 100 100" xml:space="preserve">
<g id="Layer_1">
	<path fill="none" stroke="#000000" stroke-width="2" stroke-miterlimit="10" d="M49.999,8.021
		c-23.563,0-42.666,19.103-42.666,42.667c0,23.563,19.103,42.666,42.666,42.666c23.563,0,42.667-19.104,42.667-42.666
		C92.666,27.124,73.563,8.021,49.999,8.021z"/>
</g>
<g id="Layer_2">
	<path fill="none" stroke="#000000" stroke-width="2" stroke-miterlimit="10" d="M34,54.75c1.02,0,2.603,0.111,4.21,0.444
		c2.635-2.97,4.415-8.549,4.415-14.959c0-9.519-3.918-17.235-8.75-17.235s-8.75,7.717-8.75,17.235
		c0,6.439,1.795,12.042,4.451,15.001C31.256,54.868,32.935,54.75,34,54.75z"/>
	<path fill="none" stroke="#000000" stroke-width="2" stroke-miterlimit="10" d="M65.85,54.75c1.02,0,2.604,0.111,4.21,0.444
		c2.636-2.97,4.415-8.55,4.415-14.959c0-9.519-3.918-17.235-8.75-17.235s-8.75,7.717-8.75,17.235c0,6.438,1.795,12.042,4.451,15.001
		C63.105,54.868,64.784,54.75,65.85,54.75z"/>
</g>
</svg>
