<?xml version="1.0" encoding="utf-8"?>
<!-- Generator: Adobe Illustrator 16.0.0, SVG Export Plug-In . SVG Version: 6.00 Build 0)  -->
<!DOCTYPE svg PUBLIC "-//W3C//DTD SVG 1.1//EN" "http://www.w3.org/Graphics/SVG/1.1/DTD/svg11.dtd">
<svg version="1.1" xmlns="http://www.w3.org/2000/svg" xmlns:xlink="http://www.w3.org/1999/xlink" x="0px" y="0px" width="100px"
	 height="100px" viewBox="0 0 100 100" enable-background="new 0 0 100 100" xml:space="preserve">
<g id="Layer_1">
	<path fill="none" stroke="#000000" stroke-width="2" stroke-miterlimit="10" d="M49.999,8.021
		c-23.563,0-42.666,19.103-42.666,42.667c0,23.563,19.103,42.666,42.666,42.666c23.563,0,42.667-19.104,42.667-42.666
		C92.666,27.124,73.563,8.021,49.999,8.021z M28.5,26.5c4,0,7,0,11,0C35.5,26.5,32.5,26.5,28.5,26.5z"/>
</g>
<g id="Layer_2">
	<ellipse fill="none" stroke="#000000" stroke-width="2" stroke-miterlimit="10" cx="65.725" cy="40.236" rx="8.75" ry="17.235"/>
	<path fill="none" stroke="#000000" stroke-width="2" stroke-miterlimit="10" d="M39.145,26.5c-3.785,0-6.714,0-10.539,0
		c-2.111,3.147-3.48,8.12-3.48,13.735c0,9.521,3.918,17.235,8.75,17.235s8.75-7.715,8.75-17.235
		C42.625,34.62,41.255,29.647,39.145,26.5z"/>
</g>
</svg>
