<?xml version="1.0" encoding="utf-8"?>
<!-- Generator: Adobe Illustrator 16.0.0, SVG Export Plug-In . SVG Version: 6.00 Build 0)  -->
<!DOCTYPE svg PUBLIC "-//W3C//DTD SVG 1.1//EN" "http://www.w3.org/Graphics/SVG/1.1/DTD/svg11.dtd">
<svg version="1.1" xmlns="http://www.w3.org/2000/svg" xmlns:xlink="http://www.w3.org/1999/xlink" x="0px" y="0px" width="100px"
	 height="100px" viewBox="0 0 100 100" enable-background="new 0 0 100 100" xml:space="preserve">
<g id="Layer_1">
	<path fill="none" stroke="#000000" stroke-width="2" stroke-miterlimit="10" d="M49.999,8.021
		c-23.563,0-42.666,19.103-42.666,42.667c0,23.563,19.103,42.666,42.666,42.666c23.563,0,42.667-19.104,42.667-42.666
		C92.666,27.124,73.563,8.021,49.999,8.021z"/>
</g>
<g id="Layer_2">
	<path fill="none" stroke="#000000" stroke-width="2" stroke-miterlimit="10" d="M40.859,39.827c-5.391,0-11.317-2.271-15.009-6.342
		c-0.458,2.072-0.726,4.342-0.726,6.75c0,9.521,3.918,17.235,8.75,17.235s8.75-7.715,8.75-17.235c0-0.206-0.015-0.403-0.019-0.606
		C42.083,39.756,41.501,39.827,40.859,39.827z"/>
	<path fill="none" stroke="#000000" stroke-width="2" stroke-miterlimit="10" d="M58.74,39.827c5.391,0,11.316-2.271,15.008-6.342
		c0.459,2.072,0.727,4.342,0.727,6.75c0,9.521-3.918,17.235-8.75,17.235s-8.75-7.715-8.75-17.235c0-0.206,0.014-0.403,0.019-0.606
		C57.516,39.756,58.098,39.827,58.74,39.827z"/>
</g>
</svg>
