<?xml version="1.0" encoding="utf-8"?>
<!-- Generator: Adobe Illustrator 16.0.0, SVG Export Plug-In . SVG Version: 6.00 Build 0)  -->
<!DOCTYPE svg PUBLIC "-//W3C//DTD SVG 1.1//EN" "http://www.w3.org/Graphics/SVG/1.1/DTD/svg11.dtd">
<svg version="1.1" xmlns="http://www.w3.org/2000/svg" xmlns:xlink="http://www.w3.org/1999/xlink" x="0px" y="0px" width="100px"
	 height="100px" viewBox="0 0 100 100" enable-background="new 0 0 100 100" xml:space="preserve">
<g id="Layer_1">
	<path fill="none" stroke="#000000" stroke-width="2" stroke-miterlimit="10" d="M49.999,8.021
		c23.563,0,42.667,19.103,42.667,42.667c0,23.563-19.104,42.666-42.667,42.666c-23.563,0-42.666-19.104-42.666-42.666
		C7.333,27.124,26.436,8.021,49.999,8.021z M65.725,23c-4.832,0-8.75,7.717-8.75,17.235c0,9.52,3.918,17.235,8.75,17.235
		c4.833,0,8.75-7.715,8.75-17.235C74.475,30.717,70.558,23,65.725,23z M34.494,23c-4.832,0-8.75,7.717-8.75,17.235
		c0,9.52,3.918,17.235,8.75,17.235c4.833,0,8.75-7.715,8.75-17.235C43.244,30.717,39.327,23,34.494,23z"/>
</g>
<g id="Layer_2">
	<path stroke="#000000" stroke-miterlimit="10" d="M65.75,23.276c-2.771,0-5.236,2.543-6.838,6.5c4.867,0,8.809,0,13.676,0
		C70.984,25.819,68.52,23.276,65.75,23.276z"/>
</g>
</svg>
