<?xml version="1.0" encoding="utf-8"?>
<!-- Generator: Adobe Illustrator 16.0.0, SVG Export Plug-In . SVG Version: 6.00 Build 0)  -->
<!DOCTYPE svg PUBLIC "-//W3C//DTD SVG 1.1//EN" "http://www.w3.org/Graphics/SVG/1.1/DTD/svg11.dtd">
<svg version="1.1" xmlns="http://www.w3.org/2000/svg" xmlns:xlink="http://www.w3.org/1999/xlink" x="0px" y="0px" width="100px"
	 height="100px" viewBox="0 0 100 100" enable-background="new 0 0 100 100" xml:space="preserve">
<g id="Layer_1">
	<path fill="none" stroke="#000000" stroke-width="2" stroke-miterlimit="10" d="M49.999,8.021
		c-23.563,0-42.666,19.103-42.666,42.667c0,23.563,19.103,42.666,42.666,42.666c23.563,0,42.667-19.104,42.667-42.666
		C92.666,27.124,73.563,8.021,49.999,8.021z"/>
</g>
<g id="Layer_2">
	<path fill="none" stroke="#000000" stroke-width="2" stroke-miterlimit="10" d="M33.75,47.375c1.798,0,5.046,0.287,7.712,1.29
		c0.724-2.494,1.163-5.347,1.163-8.43c0-9.519-3.918-17.235-8.75-17.235s-8.75,7.717-8.75,17.235c0,3.048,0.429,5.87,1.139,8.344
		C28.886,47.644,32.003,47.375,33.75,47.375z"/>
	<path fill="none" stroke="#000000" stroke-width="2" stroke-miterlimit="10" d="M65.6,47.375c1.798,0,5.046,0.287,7.712,1.29
		c0.724-2.494,1.163-5.347,1.163-8.43c0-9.519-3.918-17.235-8.75-17.235s-8.75,7.717-8.75,17.235c0,3.048,0.43,5.87,1.139,8.344
		C60.735,47.644,63.853,47.375,65.6,47.375z"/>
</g>
</svg>
