<?xml version="1.0" encoding="utf-8"?>
<!-- Generator: Adobe Illustrator 16.0.0, SVG Export Plug-In . SVG Version: 6.00 Build 0)  -->
<!DOCTYPE svg PUBLIC "-//W3C//DTD SVG 1.1//EN" "http://www.w3.org/Graphics/SVG/1.1/DTD/svg11.dtd">
<svg version="1.1" xmlns="http://www.w3.org/2000/svg" xmlns:xlink="http://www.w3.org/1999/xlink" x="0px" y="0px" width="100px"
	 height="100px" viewBox="0 0 100 100" enable-background="new 0 0 100 100" xml:space="preserve">
<g id="Layer_1">
	<path fill="none" stroke="#000000" stroke-width="2" stroke-miterlimit="10" d="M49.999,8.021
		c-23.563,0-42.666,19.103-42.666,42.667c0,23.563,19.103,42.666,42.666,42.666c23.563,0,42.667-19.104,42.667-42.666
		C92.666,27.124,73.563,8.021,49.999,8.021z"/>
</g>
<g id="Layer_2">
	<path fill="none" stroke="#000000" stroke-width="2" stroke-miterlimit="10" d="M38.424,35.143c-3.938,0-9.001-1.179-11.89-4.229
		c-0.886,2.686-1.409,5.876-1.409,9.321c0,9.521,3.918,17.235,8.75,17.235s8.75-7.715,8.75-17.235c0-2.076-0.207-4.044-0.551-5.883
		C40.932,34.878,39.561,35.143,38.424,35.143z"/>
	<path fill="none" stroke="#000000" stroke-width="2" stroke-miterlimit="10" d="M61.176,35.143c3.938,0,9-1.179,11.89-4.229
		c0.886,2.686,1.409,5.877,1.409,9.321c0,9.521-3.918,17.235-8.75,17.235s-8.75-7.714-8.75-17.235c0-2.075,0.207-4.044,0.551-5.883
		C58.668,34.878,60.039,35.143,61.176,35.143z"/>
</g>
</svg>
