<?xml version="1.0" encoding="utf-8"?>
<!-- Generator: Adobe Illustrator 16.0.0, SVG Export Plug-In . SVG Version: 6.00 Build 0)  -->
<!DOCTYPE svg PUBLIC "-//W3C//DTD SVG 1.1//EN" "http://www.w3.org/Graphics/SVG/1.1/DTD/svg11.dtd">
<svg version="1.1" xmlns="http://www.w3.org/2000/svg" xmlns:xlink="http://www.w3.org/1999/xlink" x="0px" y="0px" width="100px"
	 height="100px" viewBox="0 0 100 100" enable-background="new 0 0 100 100" xml:space="preserve">
<g id="Layer_1">
	<circle fill="none" stroke="#000000" stroke-width="2" stroke-miterlimit="10" cx="49.999" cy="50.688" r="42.667"/>
</g>
<g id="Layer_2">
	<path fill="none" stroke="#000000" stroke-width="2" stroke-miterlimit="10" d="M38.167,29.167c-3.898,0-6.61-1.832-8.151-4.382
		c-2.895,2.811-4.891,8.664-4.891,15.45c0,9.521,3.918,17.235,8.75,17.235s8.75-7.715,8.75-17.235c0-4.329-0.816-8.275-2.155-11.303
		C39.754,29.084,38.987,29.167,38.167,29.167z"/>
	<path fill="none" stroke="#000000" stroke-width="2" stroke-miterlimit="10" d="M61.433,29.167c3.897,0,6.61-1.832,8.151-4.382
		c2.895,2.811,4.891,8.664,4.891,15.45c0,9.521-3.918,17.235-8.75,17.235s-8.75-7.715-8.75-17.235c0-4.329,0.816-8.275,2.154-11.303
		C59.846,29.084,60.612,29.167,61.433,29.167z"/>
</g>
</svg>
