<?xml version="1.0" encoding="utf-8"?>
<!-- Generator: Adobe Illustrator 16.0.0, SVG Export Plug-In . SVG Version: 6.00 Build 0)  -->
<!DOCTYPE svg PUBLIC "-//W3C//DTD SVG 1.1//EN" "http://www.w3.org/Graphics/SVG/1.1/DTD/svg11.dtd">
<svg version="1.1" xmlns="http://www.w3.org/2000/svg" xmlns:xlink="http://www.w3.org/1999/xlink" x="0px" y="0px" width="100px"
	 height="100px" viewBox="0 0 100 100" enable-background="new 0 0 100 100" xml:space="preserve">
<g id="Layer_1">
	<circle fill="none" stroke="#000000" stroke-width="2" stroke-miterlimit="10" cx="49.999" cy="50.688" r="42.667"/>
</g>
<g id="Layer_2">
	<path fill="none" stroke="#000000" stroke-width="2" stroke-miterlimit="10" d="M41.683,32.5c-5.449,0-10.144,0-15.616,0
		c-0.597,2.327-0.942,4.949-0.942,7.735c0,9.521,3.918,17.235,8.75,17.235s8.75-7.715,8.75-17.235
		C42.625,37.449,42.28,34.827,41.683,32.5z"/>
	<path fill="none" stroke="#000000" stroke-width="2" stroke-miterlimit="10" d="M73.533,32.5c-5.449,0-10.145,0-15.617,0
		c-0.597,2.327-0.941,4.949-0.941,7.735c0,9.521,3.918,17.235,8.75,17.235s8.75-7.715,8.75-17.235
		C74.475,37.449,74.13,34.827,73.533,32.5z"/>
</g>
</svg>
