<?xml version="1.0" encoding="iso-8859-1"?>
<!-- Generator: Adobe Illustrator 19.0.0, SVG Export Plug-In . SVG Version: 6.00 Build 0)  -->
<svg version="1.1" id="Layer_1" xmlns="http://www.w3.org/2000/svg" xmlns:xlink="http://www.w3.org/1999/xlink" x="0px" y="0px"
	 viewBox="0 0 512 512" style="enable-background:new 0 0 512 512;" xml:space="preserve">
<g>
	<g>
		<g>
			<path d="M33.293,3.126c-4.167-4.165-10.919-4.165-15.086,0L3.126,18.208c-4.167,4.165-4.167,10.919,0,15.085l67.684,67.684
				C25.573,148.356,0,210.951,0,277.334v85.333c0,35.208,8.792,70.156,25.438,101.063c1.875,3.448,5.479,5.604,9.396,5.604h52.465
				c4.418,12.389,16.147,21.333,30.035,21.333c17.646,0,32-14.354,32-32v-192c0-17.646-14.354-32-32-32
				c-13.888,0-25.617,8.944-30.035,21.333H34.833c-3.917,0-7.521,2.156-9.396,5.604c-1.389,2.579-2.393,5.339-3.672,7.971
				c1.848-56.268,23.589-109.107,61.202-150.191l22.178,22.178c2.083,2.083,4.813,3.125,7.542,3.125
				c0.522,0,1.018-0.221,1.536-0.298l248.443,248.444v65.833c0,17.646,14.354,32,32,32c13.888,0,25.617-8.944,30.035-21.333h14.465
				l39.54,39.54c4.167,4.165,10.919,4.165,15.086,0l15.081-15.082c4.167-4.165,4.167-10.919,0-15.085L33.293,3.126z"/>
			<path d="M438.104,97.574c-0.667-0.906-1.458-1.688-2.333-2.333C389.5,49.563,325.979,21.334,256,21.334
				c-43.063,0-85.729,10.958-123.354,31.698c-2.938,1.625-4.938,4.521-5.417,7.844c-0.479,3.323,0.646,6.667,3.021,9.042
				l31.833,31.833c3.167,3.177,8.063,4.021,12.083,2.104c73.104-34.49,160.542-19.313,217.604,37.708
				c4.167,4.167,10.917,4.167,15.083,0l22.375-22.375c36.538,39.991,59.21,92.686,61.076,150.54
				c-1.302-2.685-2.327-5.495-3.742-8.124c-1.875-3.448-5.479-5.604-9.396-5.604h-52.465c-4.418-12.389-16.147-21.333-30.035-21.333
				c-17.646,0-32,14.354-32,32v31.25c0,2.833,1.125,5.542,3.125,7.542l120.083,120.073c2.021,2.031,4.75,3.125,7.542,3.125
				c0.896,0,1.792-0.115,2.688-0.344c3.667-0.948,6.542-3.771,7.583-7.406c5.521-19.458,8.313-39.052,8.313-58.24v-85.333
				C512,207.344,483.771,143.834,438.104,97.574z"/>
		</g>
	</g>
</g>
<g>
</g>
<g>
</g>
<g>
</g>
<g>
</g>
<g>
</g>
<g>
</g>
<g>
</g>
<g>
</g>
<g>
</g>
<g>
</g>
<g>
</g>
<g>
</g>
<g>
</g>
<g>
</g>
<g>
</g>
</svg>
