<?xml version="1.0" encoding="iso-8859-1"?>
<!-- Generator: Adobe Illustrator 19.0.0, SVG Export Plug-In . SVG Version: 6.00 Build 0)  -->
<svg version="1.1" id="Layer_1" xmlns="http://www.w3.org/2000/svg" xmlns:xlink="http://www.w3.org/1999/xlink" x="0px" y="0px"
	 viewBox="0 0 512 512" style="enable-background:new 0 0 512 512;" xml:space="preserve">
<g>
	<g>
		<path d="M437.474,96.99c-0.178-0.208-0.258-0.482-0.453-0.677c-2.874-2.874-6.04-5.408-9.078-8.09
			C382.447,46.819,322.22,21.333,256,21.333S129.553,46.819,84.057,88.223c-3.038,2.682-6.204,5.216-9.078,8.09
			c-0.195,0.195-0.275,0.469-0.453,0.677C28.503,143.299,0,207.042,0,277.333v85.333c0,35.208,8.792,70.156,25.438,101.063
			c1.875,3.448,5.479,5.604,9.396,5.604h52.465c4.418,12.389,16.147,21.333,30.035,21.333c17.646,0,32-14.354,32-32v-192
			c0-17.646-14.354-32-32-32c-13.888,0-25.617,8.944-30.035,21.333H34.833c-3.917,0-7.521,2.156-9.396,5.604
			c-1.406,2.611-2.423,5.402-3.716,8.069c1.88-57.831,24.72-110.326,61.24-150.296l22.185,22.185c4.167,4.167,10.917,4.167,15.083,0
			c36.271-36.26,84.479-56.24,135.771-56.24s99.5,19.979,135.771,56.24c2.083,2.083,4.813,3.125,7.542,3.125
			c2.729,0,5.458-1.042,7.542-3.125l22.185-22.185c36.52,39.97,59.359,92.465,61.24,150.296c-1.293-2.667-2.31-5.458-3.716-8.069
			c-1.875-3.448-5.479-5.604-9.396-5.604h-52.465c-4.418-12.389-16.147-21.333-30.035-21.333c-17.646,0-32,14.354-32,32v192
			c0,17.646,14.354,32,32,32c13.888,0,25.617-8.944,30.035-21.333h52.465c3.917,0,7.521-2.156,9.396-5.604
			C503.208,432.823,512,397.875,512,362.667v-85.333C512,207.042,483.497,143.299,437.474,96.99z"/>
	</g>
</g>
<g>
</g>
<g>
</g>
<g>
</g>
<g>
</g>
<g>
</g>
<g>
</g>
<g>
</g>
<g>
</g>
<g>
</g>
<g>
</g>
<g>
</g>
<g>
</g>
<g>
</g>
<g>
</g>
<g>
</g>
</svg>
